<?xml version="1.0" encoding="UTF-8"?>
<svg id="Camada_2" data-name="Camada 2" xmlns="http://www.w3.org/2000/svg" viewBox="0 0 926.01 554.88">
  <defs>
    <style>
      .cls-1 {
        fill: #ff6002;
      }
    </style>
  </defs>
  <g id="Camada_1-2" data-name="Camada 1">
    <g>
      <path class="cls-1" d="M911.87,489.08c-.25,5.2-2.32,8.55-6.26,10.09-3.84,1.76-7.22,2.54-10.05,2.41h-12.24c-2.7,0-4.07-1.38-4.07-4.13v-4.54c0-4.61,1.43-8.58,4.26-11.96,2.83-3.41,6.87-5.17,12.05-5.29,4.58,0,8.43,1.07,11.51,3.23,3.08,2.22,4.67,5.64,4.8,10.2M926.01,531.05c0-5.73-.83-10.34-2.51-13.75-1.75-3.25-3.75-5.67-6.08-7.26-1.52-1.38-1.52-2.69,0-3.95,1.5-.91,3.28-2.66,5.31-5.29,2.06-2.63,3.15-6.51,3.27-11.68-.13-8.48-2.96-15.06-8.46-19.69-5.85-4.66-13.16-6.98-22-6.98-9.06.13-16.4,3.16-21.97,9.08-5.66,5.89-8.48,13.03-8.48,21.42v54.17c0,2.69,1.33,4.04,4.03,4.04h6.08c2.7,0,4.04-1.35,4.04-4.04v-29.06c0-2.79,1.37-4.17,4.07-4.17h12.24c5.18.13,9.22,1.88,12.05,5.26,2.82,3.38,4.25,7.36,4.25,11.9v16.06c0,2.69,1.34,4.04,4.04,4.04h6.07c2.7,0,4.04-1.35,4.04-4.04v-16.06ZM694.72,497.44c0,2.76-1.37,4.13-4.06,4.13h-24.48c-2.71,0-4.08-1.38-4.08-4.13v-4.54c0-4.61,1.44-8.58,4.27-11.96,2.83-3.41,6.86-5.17,12.04-5.29,5.18.13,9.22,1.88,12.05,5.29,2.83,3.38,4.25,7.36,4.25,11.96v4.54ZM708.86,492.94c-.13-8.4-2.89-15.53-8.3-21.42-5.4-5.92-12.78-8.95-22.16-9.08-9.06.13-16.39,3.16-21.96,9.08-5.67,5.89-8.49,13.03-8.49,21.42v54.17c0,2.69,1.35,4.04,4.04,4.04h6.07c2.7,0,4.04-1.35,4.04-4.04v-29.06c0-2.79,1.37-4.17,4.08-4.17h24.48c2.7,0,4.06,1.38,4.06,4.17v29.06c0,2.69,1.34,4.04,4.04,4.04h6.07c2.7,0,4.04-1.35,4.04-4.04v-54.17ZM491.72,524.85c-.13-8.77-3.12-15.25-9.03-19.45-5.82-4.1-12.97-6.29-21.46-6.54-.35.13-2.83-.5-7.38-1.91-2-.76-3.65-1.94-4.96-3.6-1.66-1.47-2.45-3.54-2.45-6.17,0-2.41,1.05-4.92,3.15-7.57,2.13-2.63,6.01-4.01,11.67-4.14,4.58,0,8.67,1.75,12.37,5.23,1.88,1.66,3.78,1.85,5.78.56l4.42-3.23c2.16-1.56,2.35-3.41.54-5.51-2.48-2.85-5.53-5.26-9.22-7.26-3.84-1.76-8.46-2.7-13.89-2.82-9.38.13-16.43,2.76-21.2,7.89-4.8,5.04-7.22,10.71-7.22,17,.26,14.87,9.73,23.14,28.45,24.8.38-.13,3.08.37,8.14,1.47,2.13.69,4.04,1.94,5.78,3.76,1.56,1.91,2.35,4.41,2.35,7.55,0,3.66-1.24,7.01-3.69,10.02-2.48,3.13-6.67,4.72-12.58,4.85-4.19,0-7.92-1.25-11.09-3.76-3.09-2.38-5.67-4.95-7.79-7.71-1.3-2-3.08-2.37-5.31-1.09l-4.26,3.04c-2.13,1.69-2.51,3.63-1.17,5.76,2.22,3.79,5.75,7.48,10.55,11.05,4.8,3.7,11.16,5.67,19.04,5.92,9.72-.12,17.23-2.88,22.5-8.23,5.31-5.26,7.95-11.9,7.95-19.92M262.34,499.33c0,2.75-1.37,4.14-4.07,4.14h-24.47c-2.71,0-4.08-1.38-4.08-4.14v-4.54c0-4.61,1.43-8.58,4.26-11.97,2.83-3.41,6.87-5.16,12.05-5.29,5.18.13,9.22,1.88,12.05,5.29,2.83,3.39,4.26,7.36,4.26,11.97v4.54ZM276.48,494.79c-.13-8.4-2.9-15.51-8.3-21.39-5.4-5.92-12.78-8.95-22.16-9.08-9.06.13-16.4,3.16-21.97,9.08-5.66,5.88-8.48,12.99-8.48,21.39v29.71c0,8.27,2.82,15.31,8.48,21.2,5.57,5.98,12.91,9.05,21.97,9.18,7.75-.13,14.01-1.92,18.85-5.39,2.44-1.76,4.48-3.54,6.1-5.35,1.56-1.88,2.92-3.72,4.07-5.48.6-.88.92-1.85.92-2.94-.13-1.03-.76-2.01-1.91-2.85l-4.07-3.04c-.85-.72-1.75-1.03-2.7-.91-1.14.13-2.09.69-2.8,1.66-1.52,2.25-3.75,4.63-6.71,7.14-3.05,2.51-6.99,3.82-11.83,3.95-5.18-.13-9.18-1.94-12.01-5.45-2.83-3.45-4.23-7.36-4.23-11.75v-4.54c0-2.78,1.37-4.16,4.08-4.16h34.54c5.31,0,8.01-2.76,8.14-8.24v-12.74ZM58.06,536.37c1.24-2.13.67-4.01-1.72-5.57l-4.23-3.04c-2-1.41-3.82-.91-5.5,1.48-.34.66-.92,1.56-1.72,2.66-.73,1.16-1.72,2.35-2.99,3.57-2.45,2.76-6.16,4.19-11.16,4.32-5.18-.13-9.18-1.94-12.08-5.41-2.83-3.45-4.23-7.36-4.23-11.72v-29.87c0-4.54,1.4-8.52,4.23-11.9,2.9-3.35,6.9-5.1,12.08-5.23,2.58,0,4.83.34,6.77,1.1,1.85.97,3.37,2.07,4.58,3.23,1.27,1.09,2.26,2.28,2.99,3.56.76,1.09,1.27,2.1,1.52,3.03,1.56,2.07,3.4,2.39,5.5.91l4.42-3.2c1.15-.88,1.78-1.88,1.91-3.03,0-.97-.25-1.84-.74-2.56-.66-2.13-3.02-5.29-7.05-9.56-1.97-1.85-4.61-3.47-7.93-4.78-3.36-1.29-7.34-1.92-11.98-1.92-9.12.13-16.46,3.16-21.97,9.08-5.66,5.89-8.49,13-8.49,21.39v29.72c0,8.26,2.83,15.31,8.46,21.2,5.53,5.98,12.84,9.05,21.97,9.17,4.51-.12,8.45-.84,11.82-2.19,3.31-1.28,6-2.82,8.11-4.66,2.22-1.88,3.94-3.76,5.15-5.63,1.08-1.72,1.84-3.1,2.25-4.14"/>
      <path class="cls-1" d="M366.46,0C157.54,18.01,0,93.33,0,183.07c0,103.09,207.9,187.17,462.8,187.17s462.8-84.08,462.8-187.17c0-89.73-157.54-165.06-366.46-183.07v8.63c108.16,12.97,185.72,61.85,185.72,101.74,0,50.97-126.71,92.54-282.06,92.54s-282.06-41.57-282.06-92.54c0-39.88,77.57-86.49,185.73-99.46V0Z"/>
      <path class="cls-1" d="M422.22,22.16c-86.58,6.64-151.86,34.4-151.86,67.48,0,38,86.15,68.99,191.79,68.99s191.79-30.99,191.79-68.99c0-33.07-65.28-60.84-151.86-67.48v8.62c44.82,4.78,76.97,17.35,76.97,32.06,0,18.79-52.51,34.11-116.89,34.11s-116.9-15.32-116.9-34.11c0-14.7,32.15-27.28,76.97-32.06v-8.62Z"/>
    </g>
  </g>
</svg>