<?xml version="1.0" encoding="UTF-8"?>
<!-- Generator: Adobe Illustrator 25.2.1, SVG Export Plug-In . SVG Version: 6.00 Build 0)  -->
<svg xmlns="http://www.w3.org/2000/svg" xmlns:xlink="http://www.w3.org/1999/xlink" version="1.1" id="Camada_1" x="0px" y="0px" viewBox="0 0 500 223.9" style="enable-background:new 0 0 500 223.9;" xml:space="preserve">
<style type="text/css">
	.st0{fill:#DC782A;}
	.st1{fill:#2F2C2D;}
	.st2{fill-rule:evenodd;clip-rule:evenodd;fill:#DC782A;}
</style>
<path class="st0" d="M339.5,57.6h65.2l-4.5,16.8h-40.8L356,86.9h37.9l-4.3,16.1h-37.9l-4.2,15.5h42l-1.3,4.8  c-9.8,4.4-20.1,8.6-31.6,12l-38.4,1.1L339.5,57.6z"></path>
<path class="st0" d="M444.3,106.7l22.5,31.5h27.6l-31-44.8C458,98.1,451.6,102.5,444.3,106.7"></path>
<path class="st0" d="M408.3,57.5l28.1,38.8c6.8-4.7,13.1-9.3,18.3-13.8l-17.9-25H408.3z"></path>
<path class="st1" d="M13.5,110.3l23.6-1.4c-0.5,3.8-0.3,6.6,0.8,8.6c1.6,3.2,4.8,4.8,9.5,4.8c3.5,0,6.4-0.8,8.7-2.4  c2.3-1.6,3.8-3.5,4.3-5.7c0.5-2,0.2-3.9-1.2-5.5c-1.4-1.6-5.1-3.1-11.3-4.6c-10-2.4-16.8-5.6-20.3-9.6c-3.5-4-4.5-9-2.8-15.2  c1.1-4.1,3.3-7.9,6.6-11.5c3.3-3.6,7.6-6.4,12.9-8.5c5.3-2.1,12-3.1,20.2-3.1c10.1,0,17.3,1.9,21.5,5.6c4.3,3.7,5.8,9.7,4.6,17.9  l-23.3,1.3c0.3-3.5-0.2-6.1-1.8-7.7c-1.5-1.6-4-2.4-7.4-2.4c-2.8,0-5.1,0.6-6.9,1.8c-1.8,1.2-2.9,2.7-3.3,4.4  c-0.3,1.3,0,2.4,0.9,3.4c0.9,1,3.3,2,7.4,2.9c10,2.3,17,4.6,21,7c4,2.3,6.6,5.2,7.7,8.7c1.2,3.5,1.2,7.4,0,11.7c-1.4,5-4,9.7-7.9,14  c-3.9,4.3-8.7,7.5-14.3,9.7c-5.6,2.2-12.2,3.3-19.9,3.3c-13.4,0-22-2.6-25.8-7.7C13.2,124.8,12.1,118.3,13.5,110.3"></path>
<path class="st1" d="M117.5,97.1c-2.1,8-2.2,13.7-0.2,17.2c2,3.5,5.6,5.2,10.7,5.2c5.2,0,9.7-1.7,13.5-5.1c3.8-3.4,6.9-9.5,9.2-18.3  c2-7.4,1.9-12.8-0.1-16.3c-2.1-3.4-5.7-5.1-10.8-5.1c-4.9,0-9.3,1.7-13.2,5.2C122.7,83.4,119.7,89.1,117.5,97.1 M93.2,97  c3.4-12.9,9.7-22.9,18.8-30c9.1-7.2,20-10.8,32.8-10.8c13.1,0,22.3,3.5,27.5,10.6c5.2,7,6.1,16.9,2.7,29.6  c-2.5,9.2-6.1,16.8-10.7,22.7c-4.7,5.9-10.4,10.5-17.1,13.8c-6.8,3.3-14.5,4.9-23.2,4.9c-8.9,0-15.9-1.4-20.9-4.2  c-5.1-2.8-8.6-7.3-10.6-13.4C90.5,113.9,90.7,106.2,93.2,97z"></path>
<polygon class="st1" points="192.4,57.6 252.7,57.6 248.1,74.5 212.4,74.5 208.7,88.3 239.2,88.3 234.9,104.2 204.4,104.2   195.8,136.4 171.3,136.4 "></polygon>
<polygon class="st1" points="260.2,57.6 334.2,57.6 329,77 304.2,77 288.3,136.4 263.9,136.4 279.8,77 255,77 "></polygon>
<path class="st2" d="M293.1,38.2c361-79.5,192,167.9-118.8,116.9C416.5,181.5,639.6-15.4,293.1,38.2"></path>
<g>
	<path class="st1" d="M3.6,196.2l5-23.8h9.9c1.7,0,3,0.2,3.9,0.6c0.9,0.4,1.6,1.1,2.1,2s0.8,2,0.8,3.2c0,1-0.2,2-0.6,3   c-0.4,1-0.9,1.9-1.5,2.5c-0.6,0.7-1.2,1.2-1.9,1.5s-1.3,0.6-2,0.7c-1.5,0.4-3.1,0.5-4.6,0.5h-6l-2,9.6H3.6z M9.4,183.9h5.2   c2,0,3.5-0.2,4.5-0.7c1-0.4,1.7-1.1,2.3-2c0.6-0.9,0.9-1.8,0.9-2.9c0-0.8-0.2-1.4-0.5-1.9s-0.7-0.9-1.3-1.1s-1.6-0.3-3.2-0.3h-6.1   L9.4,183.9z"></path>
</g>
<g>
	<path class="st1" d="M41.3,196.2l5-23.8h17.2l-0.6,2.7h-14l-1.6,7.4h13.6l-0.6,2.7H46.7l-1.7,8.3h15l-0.6,2.7H41.3z"></path>
</g>
<g>
	<path class="st1" d="M78.9,196.2l5-23.8h10c2,0,3.5,0.2,4.5,0.5s1.8,0.9,2.4,1.9s0.9,2.1,0.9,3.4c0,1.9-0.6,3.5-1.9,4.8   c-1.3,1.3-3.3,2.1-6.1,2.5c0.9,0.6,1.5,1.3,2,1.9c1,1.4,1.8,2.8,2.4,4.3l1.8,4.5h-3.6l-1.7-4.4c-0.6-1.6-1.3-3-2.1-4.2   c-0.5-0.8-1.1-1.3-1.7-1.6c-0.6-0.3-1.5-0.4-2.7-0.4h-3.7l-2.2,10.6H78.9z M84.8,183.1h4.4c2,0,3.4,0,4-0.1c1.2-0.1,2.2-0.4,3-0.8   c0.8-0.4,1.4-1,1.8-1.7c0.4-0.7,0.6-1.5,0.6-2.3c0-0.7-0.2-1.3-0.5-1.8s-0.7-0.9-1.2-1s-1.4-0.3-2.6-0.3h-7.8L84.8,183.1z"></path>
</g>
<g>
	<path class="st1" d="M118.4,196.2l5-23.8h3.1l4,8.9c1.2,2.7,2.2,5,2.9,6.9c0.4,1.1,0.9,2.5,1.4,4.4c0.3-2,0.7-4.1,1.1-6.2l2.9-14   h3.1l-5,23.8h-3.1l-5.9-13.7c-1-2.4-1.9-4.6-2.4-6.4c-0.2,1.5-0.5,3.4-0.9,5.7l-3,14.4H118.4z"></path>
</g>
<g>
	<path class="st1" d="M155.6,196.2l13.5-23.8h3.7l3.9,23.8h-3.1l-1.2-6.8h-9.6l-3.8,6.8H155.6z M164.2,186.9h7.9l-0.9-6   c-0.4-2.4-0.6-4.3-0.7-5.9c-0.5,1.4-1.3,3-2.4,4.8L164.2,186.9z"></path>
</g>
<g>
	<path class="st1" d="M195.3,196.2l5-23.8h3.9l2.4,15.4c0.3,2,0.5,4,0.6,5.8c0.7-1.6,1.8-3.8,3.3-6.5l8.3-14.7h4l-5,23.8h-3.1   l2.5-11.6c0.6-2.7,1.4-5.7,2.5-9c-0.7,1.5-1.5,3.2-2.5,5l-8.9,15.5h-3.1l-2.4-15.2c-0.2-1.4-0.4-3-0.5-4.9c-0.3,2.1-0.5,3.7-0.8,5   l-3.2,15.2H195.3z"></path>
</g>
<g>
	<path class="st1" d="M238.4,196.2l5-23.8h7.4c1.3,0,2.3,0.1,3,0.2c1.1,0.2,2,0.5,2.7,1c0.7,0.5,1.3,1.1,1.7,1.9   c0.4,0.8,0.6,1.7,0.6,2.6c0,1.3-0.4,2.5-1.1,3.5c-0.7,1-1.8,1.8-3.3,2.3c1.3,0.4,2.2,1.1,2.9,1.9s1,1.8,1,3c0,1.3-0.4,2.6-1.1,3.8   s-1.7,2.1-3,2.8c-1.2,0.7-2.6,1-4.1,1H238.4z M242.1,193.5h5.4c1.4,0,2.4,0,2.9-0.1c1-0.2,1.8-0.5,2.4-0.9c0.6-0.4,1.1-1,1.5-1.6   c0.4-0.7,0.5-1.4,0.5-2.1c0-1.1-0.3-2-1-2.5s-2-0.9-4-0.9h-6L242.1,193.5z M244.4,182.6h4.8c2.3,0,4-0.4,5-1.1   c1-0.7,1.5-1.8,1.5-3.2c0-0.7-0.2-1.2-0.5-1.7s-0.7-0.8-1.3-1.1s-1.5-0.3-3-0.3H246L244.4,182.6z"></path>
</g>
<g>
	<path class="st1" d="M281.1,172.4h3.2l-3,14.6c-0.2,1.2-0.4,2.1-0.4,2.7c0,1.3,0.5,2.3,1.5,3.1c1,0.8,2.3,1.2,3.8,1.2   c1.2,0,2.3-0.3,3.4-0.8c1-0.6,1.9-1.4,2.5-2.5c0.6-1.1,1.2-2.8,1.6-5.2l2.7-13.1h3.2l-2.9,13.9c-0.5,2.4-1.2,4.3-2,5.7   c-0.8,1.4-1.9,2.5-3.4,3.3s-3.1,1.3-5,1.3c-1.8,0-3.3-0.3-4.7-0.9c-1.3-0.6-2.3-1.4-3-2.5c-0.7-1-1-2.2-1-3.6   c0-0.8,0.2-2.3,0.7-4.3L281.1,172.4z"></path>
</g>
<g>
	<path class="st1" d="M334,187.8l3.1,0.4c-1,2.7-2.4,4.8-4.3,6.2s-4,2.1-6.4,2.1c-2.9,0-5.2-0.9-6.9-2.6c-1.7-1.8-2.5-4.3-2.5-7.6   c0-4.3,1.3-7.8,3.9-10.6c2.3-2.5,5.1-3.7,8.5-3.7c2.5,0,4.6,0.7,6.1,2c1.6,1.4,2.5,3.2,2.7,5.4l-3,0.3c-0.3-1.7-1-3-1.9-3.9   s-2.2-1.3-3.8-1.3c-2.9,0-5.3,1.3-7.1,3.9c-1.6,2.2-2.3,4.9-2.3,7.9c0,2.4,0.6,4.3,1.8,5.6c1.2,1.3,2.8,1.9,4.7,1.9   c1.6,0,3.1-0.5,4.5-1.6C332.4,191.3,333.4,189.8,334,187.8z"></path>
</g>
<g>
	<path class="st1" d="M356.4,186.3c0-4.2,1.2-7.7,3.7-10.3s5.4-3.9,8.9-3.9c3,0,5.4,1,7.2,2.9c1.9,1.9,2.8,4.5,2.8,7.8   c0,2.3-0.5,4.5-1.4,6.4c-0.7,1.5-1.6,2.8-2.7,3.8s-2.2,1.9-3.4,2.5c-1.6,0.8-3.3,1.2-5.2,1.2c-1.9,0-3.6-0.5-5.2-1.4   c-1.6-0.9-2.7-2.2-3.6-3.8C356.8,189.8,356.4,188.1,356.4,186.3z M359.6,186.4c0,1.4,0.3,2.7,0.9,3.8c0.6,1.2,1.4,2.1,2.6,2.7   c1.1,0.7,2.4,1,3.6,1c1.2,0,2.4-0.3,3.5-0.9s2.1-1.4,3-2.4s1.6-2.3,2.1-3.8c0.5-1.5,0.8-3,0.8-4.5c0-2.4-0.7-4.3-2-5.7   c-1.3-1.4-3-2.1-4.9-2.1c-2.5,0-4.7,1.1-6.6,3.2C360.5,180,359.6,182.8,359.6,186.4z"></path>
</g>
</svg>
